# xmcd
#
# Track frame offsets:
#	150
#	15090
#	33703
#	53061
#	63870
#	79457
#	94353
#	107746
#	126050
#	141041
#	155327
#
# Disc length: 2352 seconds
#
# Revision: 0
# Processed by: cddbd v1.5.2PL0 Copyright (c) Steve Scherf et al.
# Submitted via: audiograbber 1.83.01
#
DISCID=89092e0b
DTITLE=Chris Corcoran Band - Blues Guitar Grooves
DYEAR=2017
DGENRE=Blues
TTITLE0=A Shot in the Dark
TTITLE1=Bag's Groove
TTITLE2=Big John Special
TTITLE3=Fast Eddie
TTITLE4=West Coasting
TTITLE5=Strung Out
TTITLE6=Congo Mombo
TTITLE7=Blues for Catie
TTITLE8=Pushing and Shoving
TTITLE9=Don't Lose Your Cool
TTITLE10=Banda Capitale
EXTD=
EXTT0=
EXTT1=
EXTT2=
EXTT3=
EXTT4=
EXTT5=
EXTT6=
EXTT7=
EXTT8=
EXTT9=
EXTT10=
PLAYORDER=
